<svg width="32" height="24" viewBox="0 0 32 24" fill="none" xmlns="http://www.w3.org/2000/svg">
<g clip-path="url(#clip0_5013_152)">
<path fill-rule="evenodd" clip-rule="evenodd" d="M-1888 -61C-1888 -66.5228 -1883.52 -71 -1878 -71H22C27.5228 -71 32 -66.5228 32 -61V23.99C32 23.9955 31.9955 24 31.99 24V24C31.9846 24 31.9802 23.9957 31.98 23.9903C31.4501 10.6513 20.4689 0 7 0H-251.481C-256.545 0 -260.704 -3.8327 -262.188 -8.67391C-268.458 -29.1277 -287.492 -44 -310 -44H-1337C-1359.51 -44 -1378.54 -29.1277 -1384.81 -8.6739C-1386.3 -3.8327 -1390.46 0 -1395.52 0H-1863C-1876.47 0 -1887.45 10.6513 -1887.98 23.9903C-1887.98 23.9957 -1887.98 24 -1887.99 24V24C-1888 24 -1888 23.9955 -1888 23.99V-61Z" fill="#7027E2"/>
</g>
<defs>
<clipPath id="clip0_5013_152">
<rect width="32" height="24" fill="white"/>
</clipPath>
</defs>
</svg>
