<svg width="68" height="71" viewBox="0 0 68 71" fill="none" xmlns="http://www.w3.org/2000/svg">
<g clip-path="url(#clip0_5013_152)">
<path fill-rule="evenodd" clip-rule="evenodd" d="M-489 10C-489 4.47715 -484.523 0 -479 0H1421C1426.52 0 1431 4.47715 1431 10V94.99C1431 94.9955 1431 95 1430.99 95V95C1430.98 95 1430.98 94.9957 1430.98 94.9903C1430.45 81.6513 1419.47 71 1406 71H1147.52C1142.46 71 1138.3 67.1673 1136.81 62.3261C1130.54 41.8723 1111.51 27 1089 27H62C39.492 27 20.4576 41.8723 14.1878 62.3261C12.7038 67.1673 8.54451 71 3.48097 71H-464C-477.469 71 -488.45 81.6513 -488.98 94.9903C-488.98 94.9957 -488.985 95 -488.99 95V95C-488.996 95 -489 94.9955 -489 94.99V10Z" fill="#7027E2"/>
</g>
<defs>
<clipPath id="clip0_5013_152">
<rect width="68" height="71" fill="white"/>
</clipPath>
</defs>
</svg>
